<svg width="200" height="200" viewBox="0 0 200 200" fill="none" xmlns="http://www.w3.org/2000/svg">
<path d="M16.5 100C16.5 105.098 19.0737 109.806 23.41 113.932C27.7428 118.054 33.9325 121.698 41.4572 124.726C56.5147 130.786 77.2134 134.5 100 134.5C122.787 134.5 143.485 130.786 158.543 124.726C166.067 121.698 172.257 118.054 176.59 113.932C180.926 109.806 183.5 105.098 183.5 100C183.5 94.9018 180.926 90.1941 176.59 86.0682C172.257 81.9457 166.067 78.3022 158.543 75.2739C143.485 69.2142 122.787 65.5 100 65.5C77.2134 65.5 56.5147 69.2142 41.4572 75.2739C33.9325 78.3022 27.7428 81.9456 23.41 86.0682C19.0737 90.1941 16.5 94.9017 16.5 100Z" stroke="white" stroke-width="3"/>
<path d="M100 131.5C77.4993 131.5 57.1979 127.827 42.5773 121.943C35.2629 118.999 29.444 115.532 25.4779 111.758C21.5154 107.988 19.5 104.014 19.5 100C19.5 95.9856 21.5154 92.0118 25.4779 88.2416C29.444 84.468 35.2629 81.0006 42.5773 78.057C57.1979 72.1731 77.4993 68.5 100 68.5C122.501 68.5 142.802 72.1731 157.423 78.057C164.737 81.0006 170.556 84.468 174.522 88.2416C178.485 92.0118 180.5 95.9856 180.5 100C180.5 104.014 178.485 107.988 174.522 111.758C170.556 115.532 164.737 118.999 157.423 121.943C142.802 127.827 122.501 131.5 100 131.5Z" fill="#0D8BFF" fill-opacity="0.5" stroke="black" stroke-width="3"/>
<path d="M58.2499 27.6869C53.7878 30.2631 50.9447 34.8679 49.4912 40.7143C48.0392 46.5549 47.9357 53.7621 49.0402 61.8147C51.2502 77.9279 58.3402 97.738 69.7346 117.474C81.129 137.209 94.74 153.255 107.589 163.225C114.011 168.208 120.304 171.722 126.089 173.385C131.878 175.049 137.288 174.889 141.75 172.313C146.212 169.737 149.055 165.132 150.509 159.286C151.961 153.445 152.064 146.238 150.96 138.185C148.75 122.072 141.66 102.262 130.265 82.5263C118.871 62.7907 105.26 46.7455 92.4104 36.7749C85.9888 31.7921 79.6955 28.2782 73.9113 26.6153C68.1215 24.9509 62.7121 25.1107 58.2499 27.6869Z" fill="#0D8BFF" stroke="white" stroke-width="3"/>
<path fill-rule="evenodd" clip-rule="evenodd" d="M53.4985 61.2032C55.6115 76.609 62.455 95.865 73.6317 115.224C84.8085 134.582 98.0629 150.137 110.348 159.67C116.497 164.441 122.28 167.607 127.332 169.06C132.373 170.509 136.426 170.191 139.5 168.416C142.574 166.641 144.876 163.29 146.142 158.2C147.41 153.098 147.559 146.508 146.501 138.797C144.388 123.391 137.545 104.135 126.368 84.7763C115.191 65.4176 101.937 49.863 89.6517 40.3302C83.5026 35.5588 77.7203 32.3926 72.668 30.9402C67.6271 29.491 63.5739 29.8093 60.4999 31.584C57.426 33.3587 55.1237 36.7098 53.8583 41.7999C52.59 46.9016 52.4409 53.4924 53.4985 61.2032ZM58.9999 28.9859C43.0023 38.2221 48.39 77.5037 71.0336 116.724C93.6773 155.944 125.002 180.25 141 171.014C156.998 161.778 151.61 122.496 128.966 83.2763C106.323 44.0563 74.9976 19.7497 58.9999 28.9859Z" fill="black"/>
<path d="M58.25 172.313C62.7121 174.889 68.1215 175.049 73.9114 173.385C79.6955 171.722 85.9889 168.208 92.4104 163.225C105.26 153.254 118.871 137.209 130.265 117.474C141.66 97.738 148.75 77.9279 150.96 61.8147C152.064 53.7621 151.961 46.5549 150.509 40.7143C149.055 34.8679 146.212 30.2631 141.75 27.6869C137.288 25.1106 131.878 24.9508 126.089 26.6153C120.304 28.2782 114.011 31.7921 107.59 36.7749C94.7401 46.7455 81.129 62.7906 69.7347 82.5263C58.3403 102.262 51.2503 122.072 49.0402 138.185C47.9358 146.238 48.0393 153.445 49.4913 159.286C50.9447 165.132 53.7878 169.737 58.25 172.313Z" stroke="white" stroke-width="3"/>
<path d="M127.667 115.974C116.418 135.458 103.045 151.176 90.5713 160.855C84.3314 165.697 78.3787 168.979 73.0825 170.501C67.7919 172.022 63.2866 171.757 59.75 169.715C56.2133 167.673 53.7307 163.904 52.4027 158.562C51.0731 153.214 50.9392 146.418 52.0124 138.593C54.1578 122.951 61.0834 103.511 72.3327 84.0263C83.582 64.5419 96.9553 48.8238 109.429 39.1451C115.669 34.3033 121.621 31.0211 126.917 29.4985C132.208 27.9776 136.713 28.243 140.25 30.2849C143.787 32.3268 146.269 36.0958 147.597 41.438C148.927 46.786 149.061 53.5822 147.987 61.407C145.842 77.0486 138.916 96.4893 127.667 115.974Z" stroke="black" stroke-width="3"/>
<circle cx="100" cy="100" r="15.5" fill="black" stroke="white" stroke-width="3"/>
</svg>
