<svg width="200" height="200" viewBox="0 0 200 200" fill="none" xmlns="http://www.w3.org/2000/svg">
<path d="M22.7207 23.5H21.2207V25V174V175.5H22.7207H71.5754H73.0754V174V55C73.0754 37.603 58.9724 23.5 41.5754 23.5H22.7207Z" fill="#0D8BFF" stroke="white" stroke-width="3"/>
<path d="M59.1397 51.8017H57.6397V53.3017V174V175.5H59.1397H107.994H109.494V174V83.3017C109.494 65.9047 95.3914 51.8017 77.9944 51.8017H59.1397Z" fill="white" stroke="white" stroke-width="3"/>
<path fill-rule="evenodd" clip-rule="evenodd" d="M77.9944 56.3017H62.1397V171H104.994V83.3017C104.994 68.39 92.9061 56.3017 77.9944 56.3017ZM59.1397 53.3017V174H107.994V83.3017C107.994 66.7332 94.563 53.3017 77.9944 53.3017H59.1397Z" fill="black"/>
<path d="M95.5587 80.1033H94.0587V81.6033V174V175.5H95.5587H144.413H145.913V174V111.603C145.913 94.2064 131.81 80.1033 114.413 80.1033H95.5587Z" stroke="white" stroke-width="3"/>
<path opacity="0.5" d="M95.5587 81.6033H114.413C130.982 81.6033 144.413 95.0348 144.413 111.603V174H95.5587V81.6033Z" fill="#0D8BFF"/>
<path d="M128.425 108.405H126.925V109.905V174V175.5H128.425H177.279H178.779V174V139.905C178.779 122.508 164.676 108.405 147.279 108.405H128.425Z" fill="black" stroke="white" stroke-width="3"/>
</svg>
