<svg width="984" height="984" viewBox="0 0 984 984" fill="none" xmlns="http://www.w3.org/2000/svg">
<rect width="984" height="984" rx="492" fill="#1EA3F6"/>
<path fill-rule="evenodd" clip-rule="evenodd" d="M539.432 264.179C523.569 244.347 507.511 232.429 499.691 227.27C391.431 184.164 287.508 193.932 231.026 256.571C157.734 337.854 182.082 488.198 289.643 613.764C294.385 619.301 293.734 627.63 288.189 632.367C282.643 637.104 274.303 636.457 269.561 630.92C154.323 496.392 127.663 331.774 211.391 238.917C271.758 171.969 375.764 157.759 484.687 193.737C487.511 194.252 490.86 195.05 494.8 196.175C528.185 205.709 552.485 208.469 565.761 209.215C569.638 208.02 573.757 207.377 578.027 207.377C600.963 207.377 619.557 225.939 619.557 248.837C619.557 271.734 600.963 290.296 578.027 290.296C568.342 290.296 559.431 286.987 552.367 281.439L552.138 282.1C551.767 281.507 551.395 280.919 551.022 280.336C545.954 276.001 541.944 270.469 539.432 264.179Z" fill="white"/>
<path fill-rule="evenodd" clip-rule="evenodd" d="M405.328 744.978C403.555 744.149 401.621 743.182 399.514 742.064C351.294 716.483 321.567 711.974 321.567 711.974L321.681 711.785C302.411 708.201 287.823 691.313 287.823 671.02C287.823 648.119 306.403 629.553 329.324 629.553C351.072 629.553 368.912 646.268 370.681 667.541C382.994 691.644 397.247 706.82 402.881 712.296C534.444 798.383 681.481 806.732 753.649 726.626C837.773 633.249 791.666 451.322 647.175 321.295C639.445 314.339 631.555 307.642 623.524 301.214C617.833 296.66 616.914 288.355 621.473 282.666C626.031 276.977 634.34 276.057 640.032 280.611C648.461 287.357 656.738 294.383 664.847 301.68C818.899 440.312 869.005 638.017 773.27 744.282C694.166 832.087 542.531 827.447 405.328 744.978Z" fill="white"/>
<path fill-rule="evenodd" clip-rule="evenodd" d="M706.409 574.859C712.673 574.807 717.71 569.7 717.659 563.453C717.617 558.217 717.308 552.878 716.735 547.452C710.19 485.44 669.794 415.205 607.372 359.151C524.805 285.007 423.075 253.049 355.927 279.554C337.141 284.151 325.259 282.593 325.259 282.593L325.353 282.71C324.077 282.592 322.784 282.532 321.478 282.532C298.506 282.532 279.884 301.099 279.884 324.002C279.884 346.906 298.506 365.473 321.478 365.473C342.803 365.473 360.379 349.472 362.79 328.856L362.831 328.907C362.831 328.762 362.832 328.618 362.832 328.475C362.99 327.006 363.072 325.514 363.072 324.002C363.072 323.802 363.07 323.603 363.067 323.403C364.774 304.218 375.286 297.773 379.807 295.87C437.861 283.022 521.899 312.844 592.191 375.966C650.702 428.508 688.263 493.814 694.176 549.827C694.673 554.535 694.94 559.145 694.976 563.642C695.027 569.89 700.146 574.912 706.409 574.859ZM340.384 324.002C340.384 334.413 331.92 342.852 321.478 342.852C311.036 342.852 302.572 334.413 302.572 324.002C302.572 313.591 311.036 305.152 321.478 305.152C331.92 305.152 340.384 313.591 340.384 324.002Z" fill="white"/>
<path fill-rule="evenodd" clip-rule="evenodd" d="M302.459 388.93C296.24 389.607 291.749 395.185 292.427 401.387C299.177 463.175 339.456 533.024 401.564 588.805C480.512 659.71 577.493 692.364 644.839 671.069L645.034 671.107C645.034 671.107 655.118 668.255 668.41 671.605C673.241 673.567 678.526 674.648 684.064 674.648C707.003 674.648 725.598 656.104 725.598 633.23C725.598 610.355 707.003 591.811 684.064 591.811C661.373 591.811 642.933 609.955 642.536 632.488C641.291 637.379 636.924 648.308 622.258 653.238C564.211 662.64 483.937 632.378 416.724 572.011C358.502 519.721 321.045 454.766 314.945 398.933C314.267 392.731 308.677 388.252 302.459 388.93ZM702.943 633.23C702.943 643.627 694.491 652.056 684.064 652.056C673.637 652.056 665.184 643.627 665.184 633.23C665.184 622.832 673.637 614.403 684.064 614.403C694.491 614.403 702.943 622.832 702.943 633.23Z" fill="white"/>
<path fill-rule="evenodd" clip-rule="evenodd" d="M574.191 542.537H538.892L521.245 519.977H574.191V542.537ZM574.191 510.939H514.175L500.036 492.864H574.191V510.939ZM473.962 510.939V492.864H438.662V510.939H473.962ZM438.662 519.977V542.537H473.962V519.977H438.662ZM534.125 483.827H492.967L478.827 465.751H519.968L534.125 483.827ZM538.892 465.751V483.827H574.191V465.751H538.892ZM438.662 483.827H473.962V465.751H438.662V483.827ZM574.191 456.714H538.892V438.64H574.191V456.714ZM512.89 456.714L498.735 438.64H438.662V456.714H512.89ZM491.657 429.602H438.662V407.008H473.962L491.657 429.602ZM538.892 407.008V429.602H574.191V407.008H538.892Z" fill="white"/>
</svg>
