<svg width="128" height="128" viewBox="0 0 128 128" fill="none" xmlns="http://www.w3.org/2000/svg">
<g clip-path="url(#clip0_938_40676)">
<rect width="128" height="128" rx="29" fill="url(#paint0_linear_938_40676)"/>
<path fill-rule="evenodd" clip-rule="evenodd" d="M76 21C74.3305 21 72.7975 21.5845 71.5944 22.56C54.6936 14.0706 36.0888 13.6686 24.8787 24.8787C12.4569 37.3004 14.2696 58.744 25.6341 77.0804C26.5069 78.4887 28.3561 78.9228 29.7644 78.05C31.1727 77.1771 31.6068 75.3279 30.734 73.9196C19.9676 56.5482 19.636 38.6066 29.1213 29.1213C37.7049 20.5378 53.1657 19.9743 69.0001 27.9712L69 28C69 31.866 72.134 35 76 35C79.866 35 83 31.866 83 28C83 24.134 79.866 21 76 21ZM86.8464 36.7849C88.0179 35.6133 89.9174 35.6133 91.089 36.7849C101.656 47.3522 108.419 59.9124 110.701 71.7898C112.979 83.6475 110.821 95.1694 102.995 102.995C95.1694 110.821 83.6475 112.979 71.7898 110.701C62.065 108.832 51.8826 103.96 42.711 96.4557C41.8772 96.8063 40.9612 97 40 97C36.134 97 33 93.866 33 90C33 86.134 36.134 83 40 83C43.866 83 47 86.134 47 90C47 90.6876 46.9008 91.3521 46.7161 91.9799C55.1416 98.8234 64.3491 103.161 72.9219 104.809C83.4922 106.84 92.7543 104.751 98.7526 98.7526C104.751 92.7543 106.84 83.4922 104.809 72.922C102.781 62.3715 96.6788 50.8599 86.8464 41.0275C85.6748 39.8559 85.6748 37.9565 86.8464 36.7849ZM76 30C77.1046 30 78 29.1046 78 28C78 26.8954 77.1046 26 76 26C74.8954 26 74 26.8954 74 28C74 29.1046 74.8954 30 76 30ZM51 53V49H58.3655L61.3382 53H51ZM69.153 53V49H78V53H69.153ZM59.847 73V77H51V73H59.847ZM78 77V73H67.7702L70.7179 77H78ZM51 67V71H59.847V67H51ZM66.2964 71H78V67H63.3487L66.2964 71ZM59.847 65H51V61H67.2835L69.0078 63.3202H69.153V61H78V65H61.8748L59.9935 62.447H59.847V65ZM51 55V59H65.7972L62.8245 55H51ZM78 59H69.153V55H78V59Z" fill="white"/>
</g>
<defs>
<linearGradient id="paint0_linear_938_40676" x1="64" y1="0" x2="64" y2="128" gradientUnits="userSpaceOnUse">
<stop stop-color="#FF0DAD"/>
<stop offset="1" stop-color="#0040E4"/>
</linearGradient>
<clipPath id="clip0_938_40676">
<rect width="128" height="128" fill="white"/>
</clipPath>
</defs>
</svg>
