<svg width="1167" height="794" viewBox="0 0 1167 794" fill="none" xmlns="http://www.w3.org/2000/svg">
<path d="M186.759 575.123L263.361 522.887" stroke="#999999" stroke-opacity="0.6" stroke-linecap="round"/>
<path d="M373.466 449.025L263.361 522.887" stroke="#999999" stroke-opacity="0.6" stroke-width="2.82843" stroke-linecap="round"/>
<path d="M391.734 491.971L263.361 522.887" stroke="#999999" stroke-opacity="0.6" stroke-width="3.16228" stroke-linecap="round"/>
<path d="M391.734 491.97L373.466 449.025" stroke="#999999" stroke-opacity="0.6" stroke-width="2.44949" stroke-linecap="round"/>
<path d="M180.277 537.802L263.361 522.887" stroke="#999999" stroke-opacity="0.6" stroke-linecap="round"/>
<path d="M180.76 490.918L263.361 522.886" stroke="#999999" stroke-opacity="0.6" stroke-linecap="round"/>
<path d="M202.555 592.618L263.361 522.887" stroke="#999999" stroke-opacity="0.6" stroke-linecap="round"/>
<path d="M166.943 516.723L263.361 522.886" stroke="#999999" stroke-opacity="0.6" stroke-linecap="round"/>
<path d="M226.588 603.801L263.361 522.887" stroke="#999999" stroke-opacity="0.6" stroke-width="1.41421" stroke-linecap="round"/>
<path d="M168.371 557.793L263.361 522.887" stroke="#999999" stroke-opacity="0.6" stroke-linecap="round"/>
<path d="M562.485 420.266L585.546 497.016" stroke="#999999" stroke-opacity="0.6" stroke-linecap="round"/>
<path d="M562.485 420.266L391.734 491.97" stroke="#999999" stroke-opacity="0.6" stroke-width="1.73205" stroke-linecap="round"/>
<path d="M562.485 420.266L373.466 449.026" stroke="#999999" stroke-opacity="0.6" stroke-width="1.73205" stroke-linecap="round"/>
<path d="M562.485 420.266L263.361 522.887" stroke="#999999" stroke-opacity="0.6" stroke-width="2.23607" stroke-linecap="round"/>
<path d="M412.108 324.689L562.485 420.266" stroke="#999999" stroke-opacity="0.6" stroke-linecap="round"/>
<path d="M552.654 501.219L562.485 420.266" stroke="#999999" stroke-opacity="0.6" stroke-linecap="round"/>
<path d="M493.02 451.939L562.485 420.266" stroke="#999999" stroke-opacity="0.6" stroke-linecap="round"/>
<path d="M490.205 405.314L562.485 420.265" stroke="#999999" stroke-opacity="0.6" stroke-linecap="round"/>
<path d="M155.325 168.708L303.331 143.729" stroke="#999999" stroke-opacity="0.6" stroke-width="2" stroke-linecap="round"/>
<path d="M177.932 82.6055L303.331 143.729" stroke="#999999" stroke-opacity="0.6" stroke-width="2" stroke-linecap="round"/>
<path d="M177.932 82.6055L155.325 168.709" stroke="#999999" stroke-opacity="0.6" stroke-width="2" stroke-linecap="round"/>
<path d="M112.193 170.369L303.331 143.729" stroke="#999999" stroke-opacity="0.6" stroke-width="2" stroke-linecap="round"/>
<path d="M112.193 170.37L155.325 168.709" stroke="#999999" stroke-opacity="0.6" stroke-width="2" stroke-linecap="round"/>
<path d="M112.193 170.369L177.932 82.6055" stroke="#999999" stroke-opacity="0.6" stroke-width="2" stroke-linecap="round"/>
<path d="M131.011 84.3711L303.331 143.729" stroke="#999999" stroke-opacity="0.6" stroke-width="1.73205" stroke-linecap="round"/>
<path d="M131.011 84.3711L155.325 168.708" stroke="#999999" stroke-opacity="0.6" stroke-width="1.73205" stroke-linecap="round"/>
<path d="M131.011 84.3713L177.932 82.6055" stroke="#999999" stroke-opacity="0.6" stroke-width="1.73205" stroke-linecap="round"/>
<path d="M131.011 84.3711L112.193 170.369" stroke="#999999" stroke-opacity="0.6" stroke-width="2" stroke-linecap="round"/>
<path d="M173.434 127.42L303.331 143.729" stroke="#999999" stroke-opacity="0.6" stroke-width="1.73205" stroke-linecap="round"/>
<path d="M173.434 127.42L155.325 168.708" stroke="#999999" stroke-opacity="0.6" stroke-width="1.73205" stroke-linecap="round"/>
<path d="M173.434 127.42L177.932 82.6055" stroke="#999999" stroke-opacity="0.6" stroke-width="1.73205" stroke-linecap="round"/>
<path d="M173.434 127.42L112.193 170.369" stroke="#999999" stroke-opacity="0.6" stroke-width="1.73205" stroke-linecap="round"/>
<path d="M173.434 127.42L131.011 84.3711" stroke="#999999" stroke-opacity="0.6" stroke-width="2.23607" stroke-linecap="round"/>
<path d="M105.51 123.51L303.331 143.728" stroke="#999999" stroke-opacity="0.6" stroke-width="1.73205" stroke-linecap="round"/>
<path d="M105.51 123.51L155.325 168.708" stroke="#999999" stroke-opacity="0.6" stroke-width="1.73205" stroke-linecap="round"/>
<path d="M105.51 123.51L177.932 82.6055" stroke="#999999" stroke-opacity="0.6" stroke-width="1.73205" stroke-linecap="round"/>
<path d="M105.51 123.51L112.193 170.369" stroke="#999999" stroke-opacity="0.6" stroke-width="1.73205" stroke-linecap="round"/>
<path d="M105.51 123.51L131.011 84.3711" stroke="#999999" stroke-opacity="0.6" stroke-width="2" stroke-linecap="round"/>
<path d="M105.51 123.51L173.434 127.419" stroke="#999999" stroke-opacity="0.6" stroke-width="2" stroke-linecap="round"/>
<path d="M310.574 231.532L303.331 143.729" stroke="#999999" stroke-opacity="0.6" stroke-width="1.73205" stroke-linecap="round"/>
<path d="M310.574 231.533L155.325 168.709" stroke="#999999" stroke-opacity="0.6" stroke-width="1.73205" stroke-linecap="round"/>
<path d="M310.574 231.533L177.932 82.6055" stroke="#999999" stroke-opacity="0.6" stroke-width="1.73205" stroke-linecap="round"/>
<path d="M310.574 231.533L112.193 170.369" stroke="#999999" stroke-opacity="0.6" stroke-width="1.73205" stroke-linecap="round"/>
<path d="M310.574 231.532L131.011 84.3711" stroke="#999999" stroke-opacity="0.6" stroke-width="2" stroke-linecap="round"/>
<path d="M310.574 231.533L173.434 127.42" stroke="#999999" stroke-opacity="0.6" stroke-width="2" stroke-linecap="round"/>
<path d="M310.574 231.532L105.51 123.51" stroke="#999999" stroke-opacity="0.6" stroke-width="2" stroke-linecap="round"/>
<path d="M310.574 231.533L412.108 324.69" stroke="#999999" stroke-opacity="0.6" stroke-width="1.41421" stroke-linecap="round"/>
<path d="M310.574 231.533L562.485 420.266" stroke="#999999" stroke-opacity="0.6" stroke-width="3" stroke-linecap="round"/>
<path d="M628.044 304.33L310.574 231.533" stroke="#999999" stroke-opacity="0.6" stroke-width="1.41421" stroke-linecap="round"/>
<path d="M628.044 304.33L562.485 420.266" stroke="#999999" stroke-opacity="0.6" stroke-width="2.64575" stroke-linecap="round"/>
<path d="M693.151 351.699L628.044 304.33" stroke="#999999" stroke-opacity="0.6" stroke-width="3.60555" stroke-linecap="round"/>
<path d="M693.151 351.699L310.574 231.533" stroke="#999999" stroke-opacity="0.6" stroke-linecap="round"/>
<path d="M693.151 351.697L562.485 420.264" stroke="#999999" stroke-opacity="0.6" stroke-width="3.4641" stroke-linecap="round"/>
<path d="M608.324 228.785L628.044 304.329" stroke="#999999" stroke-opacity="0.6" stroke-width="2" stroke-linecap="round"/>
<path d="M608.324 228.785L562.485 420.265" stroke="#999999" stroke-opacity="0.6" stroke-width="5.56776" stroke-linecap="round"/>
<path d="M608.324 228.785L303.331 143.729" stroke="#999999" stroke-opacity="0.6" stroke-linecap="round"/>
<path d="M608.324 228.785L693.151 351.698" stroke="#999999" stroke-opacity="0.6" stroke-linecap="round"/>
<path d="M607.702 371.266L562.485 420.265" stroke="#999999" stroke-opacity="0.6" stroke-width="4.12311" stroke-linecap="round"/>
<path d="M607.702 371.266L310.574 231.533" stroke="#999999" stroke-opacity="0.6" stroke-width="2.23607" stroke-linecap="round"/>
<path d="M607.702 371.265L693.151 351.697" stroke="#999999" stroke-opacity="0.6" stroke-width="2.23607" stroke-linecap="round"/>
<path d="M607.702 371.267L628.044 304.33" stroke="#999999" stroke-opacity="0.6" stroke-linecap="round"/>
<path d="M607.702 371.266L608.324 228.785" stroke="#999999" stroke-opacity="0.6" stroke-linecap="round"/>
<path d="M493.718 320.227L562.485 420.265" stroke="#999999" stroke-opacity="0.6" stroke-width="2.82843" stroke-linecap="round"/>
<path d="M493.718 320.227L607.702 371.266" stroke="#999999" stroke-opacity="0.6" stroke-linecap="round"/>
<path d="M422.192 451.669L310.574 231.533" stroke="#999999" stroke-opacity="0.6" stroke-linecap="round"/>
<path d="M422.192 451.668L607.702 371.266" stroke="#999999" stroke-opacity="0.6" stroke-linecap="round"/>
<path d="M422.192 451.669L562.485 420.266" stroke="#999999" stroke-opacity="0.6" stroke-width="1.41421" stroke-linecap="round"/>
<path d="M365.408 190.949L310.574 231.532" stroke="#999999" stroke-opacity="0.6" stroke-linecap="round"/>
<path d="M449.73 288.168L365.408 190.949" stroke="#999999" stroke-opacity="0.6" stroke-width="1.41421" stroke-linecap="round"/>
<path d="M449.73 288.168L562.485 420.265" stroke="#999999" stroke-opacity="0.6" stroke-width="1.73205" stroke-linecap="round"/>
<path d="M449.73 288.169L310.574 231.533" stroke="#999999" stroke-opacity="0.6" stroke-width="1.41421" stroke-linecap="round"/>
<path d="M449.73 288.168L607.702 371.266" stroke="#999999" stroke-opacity="0.6" stroke-linecap="round"/>
<path d="M520.122 486.206L562.485 420.266" stroke="#999999" stroke-opacity="0.6" stroke-linecap="round"/>
<path d="M531.97 353.271L562.485 420.266" stroke="#999999" stroke-opacity="0.6" stroke-width="1.41421" stroke-linecap="round"/>
<path d="M531.97 353.271L607.702 371.266" stroke="#999999" stroke-opacity="0.6" stroke-linecap="round"/>
<path d="M488.26 571.615L562.485 420.266" stroke="#999999" stroke-opacity="0.6" stroke-width="1.73205" stroke-linecap="round"/>
<path d="M488.26 571.614L422.192 451.668" stroke="#999999" stroke-opacity="0.6" stroke-width="1.41421" stroke-linecap="round"/>
<path d="M401.652 536.639L562.485 420.266" stroke="#999999" stroke-opacity="0.6" stroke-width="1.73205" stroke-linecap="round"/>
<path d="M401.652 536.639L488.26 571.615" stroke="#999999" stroke-opacity="0.6" stroke-width="1.73205" stroke-linecap="round"/>
<path d="M401.652 536.638L422.192 451.668" stroke="#999999" stroke-opacity="0.6" stroke-width="1.41421" stroke-linecap="round"/>
<path d="M454.078 534.756L488.26 571.616" stroke="#999999" stroke-opacity="0.6" stroke-width="1.41421" stroke-linecap="round"/>
<path d="M454.078 534.756L401.652 536.639" stroke="#999999" stroke-opacity="0.6" stroke-width="1.41421" stroke-linecap="round"/>
<path d="M454.078 534.755L562.485 420.266" stroke="#999999" stroke-opacity="0.6" stroke-width="1.41421" stroke-linecap="round"/>
<path d="M454.078 534.754L422.192 451.668" stroke="#999999" stroke-opacity="0.6" stroke-linecap="round"/>
<path d="M452.179 598.184L488.259 571.615" stroke="#999999" stroke-opacity="0.6" stroke-width="1.41421" stroke-linecap="round"/>
<path d="M452.18 598.184L401.652 536.639" stroke="#999999" stroke-opacity="0.6" stroke-width="1.41421" stroke-linecap="round"/>
<path d="M452.179 598.185L454.078 534.756" stroke="#999999" stroke-opacity="0.6" stroke-width="1.41421" stroke-linecap="round"/>
<path d="M452.179 598.184L562.484 420.266" stroke="#999999" stroke-opacity="0.6" stroke-width="1.41421" stroke-linecap="round"/>
<path d="M452.18 598.183L422.192 451.668" stroke="#999999" stroke-opacity="0.6" stroke-linecap="round"/>
<path d="M409.46 579.264L488.26 571.615" stroke="#999999" stroke-opacity="0.6" stroke-width="1.41421" stroke-linecap="round"/>
<path d="M409.46 579.263L401.652 536.639" stroke="#999999" stroke-opacity="0.6" stroke-width="1.41421" stroke-linecap="round"/>
<path d="M409.46 579.264L454.078 534.756" stroke="#999999" stroke-opacity="0.6" stroke-width="1.41421" stroke-linecap="round"/>
<path d="M409.46 579.264L452.18 598.184" stroke="#999999" stroke-opacity="0.6" stroke-width="1.41421" stroke-linecap="round"/>
<path d="M409.46 579.263L562.485 420.266" stroke="#999999" stroke-opacity="0.6" stroke-width="1.41421" stroke-linecap="round"/>
<path d="M409.46 579.263L422.192 451.668" stroke="#999999" stroke-opacity="0.6" stroke-linecap="round"/>
<path d="M792.268 252.691L693.151 351.699" stroke="#999999" stroke-opacity="0.6" stroke-linecap="round"/>
<path d="M684.46 273.986L693.151 351.699" stroke="#999999" stroke-opacity="0.6" stroke-linecap="round"/>
<path d="M814.138 389.987L628.044 304.33" stroke="#999999" stroke-opacity="0.6" stroke-width="1.41421" stroke-linecap="round"/>
<path d="M814.138 389.985L693.151 351.697" stroke="#999999" stroke-opacity="0.6" stroke-width="1.73205" stroke-linecap="round"/>
<path d="M746.013 310.775L814.138 389.987" stroke="#999999" stroke-opacity="0.6" stroke-width="1.41421" stroke-linecap="round"/>
<path d="M746.014 310.775L693.151 351.699" stroke="#999999" stroke-opacity="0.6" stroke-width="1.41421" stroke-linecap="round"/>
<path d="M746.013 310.775L628.044 304.33" stroke="#999999" stroke-opacity="0.6" stroke-linecap="round"/>
<path d="M573.077 304.289L562.485 420.265" stroke="#999999" stroke-opacity="0.6" stroke-width="1.73205" stroke-linecap="round"/>
<path d="M573.077 304.289L608.324 228.785" stroke="#999999" stroke-opacity="0.6" stroke-linecap="round"/>
<path d="M573.077 304.289L607.702 371.266" stroke="#999999" stroke-opacity="0.6" stroke-linecap="round"/>
<path d="M464.79 384.595L493.718 320.227" stroke="#999999" stroke-opacity="0.6" stroke-width="1.73205" stroke-linecap="round"/>
<path d="M464.79 384.596L562.485 420.266" stroke="#999999" stroke-opacity="0.6" stroke-linecap="round"/>
<path d="M426.903 252.756L493.718 320.227" stroke="#999999" stroke-opacity="0.6" stroke-width="1.41421" stroke-linecap="round"/>
<path d="M895.886 630.311L908.565 724.318" stroke="#999999" stroke-opacity="0.6" stroke-linecap="round"/>
<path d="M875.156 498.387L895.886 630.31" stroke="#999999" stroke-opacity="0.6" stroke-width="1.41421" stroke-linecap="round"/>
<path d="M875.156 498.386L693.151 351.697" stroke="#999999" stroke-opacity="0.6" stroke-linecap="round"/>
<path d="M875.156 498.387L607.702 371.266" stroke="#999999" stroke-opacity="0.6" stroke-linecap="round"/>
<path d="M875.156 498.387L562.485 420.266" stroke="#999999" stroke-opacity="0.6" stroke-linecap="round"/>
<path d="M719.015 257.541L608.324 228.785" stroke="#999999" stroke-opacity="0.6" stroke-width="1.73205" stroke-linecap="round"/>
<path d="M719.015 257.541L562.485 420.265" stroke="#999999" stroke-opacity="0.6" stroke-width="1.41421" stroke-linecap="round"/>
<path d="M650.513 199.559L719.015 257.542" stroke="#999999" stroke-opacity="0.6" stroke-linecap="round"/>
<path d="M650.513 199.559L628.044 304.33" stroke="#999999" stroke-opacity="0.6" stroke-linecap="round"/>
<path d="M704.295 203.73L719.015 257.541" stroke="#999999" stroke-opacity="0.6" stroke-width="3" stroke-linecap="round"/>
<path d="M704.295 203.73L608.324 228.785" stroke="#999999" stroke-opacity="0.6" stroke-width="1.41421" stroke-linecap="round"/>
<path d="M704.295 203.73L562.485 420.265" stroke="#999999" stroke-opacity="0.6" stroke-width="1.41421" stroke-linecap="round"/>
<path d="M786.51 141.686L704.295 203.73" stroke="#999999" stroke-opacity="0.6" stroke-linecap="round"/>
<path d="M786.51 141.686L792.268 252.691" stroke="#999999" stroke-opacity="0.6" stroke-linecap="round"/>
<path d="M715.294 111.076L704.295 203.731" stroke="#999999" stroke-opacity="0.6" stroke-linecap="round"/>
<path d="M767.026 199.607L704.295 203.73" stroke="#999999" stroke-opacity="0.6" stroke-width="1.41421" stroke-linecap="round"/>
<path d="M767.026 199.607L719.015 257.54" stroke="#999999" stroke-opacity="0.6" stroke-linecap="round"/>
<path d="M767.026 199.607L608.324 228.784" stroke="#999999" stroke-opacity="0.6" stroke-linecap="round"/>
<path d="M840.523 330.657L704.295 203.73" stroke="#999999" stroke-opacity="0.6" stroke-width="2.44949" stroke-linecap="round"/>
<path d="M840.523 330.657L719.015 257.541" stroke="#999999" stroke-opacity="0.6" stroke-width="3.4641" stroke-linecap="round"/>
<path d="M840.523 330.658L792.268 252.691" stroke="#999999" stroke-opacity="0.6" stroke-linecap="round"/>
<path d="M840.523 330.657L767.026 199.607" stroke="#999999" stroke-opacity="0.6" stroke-linecap="round"/>
<path d="M840.523 330.657L608.324 228.785" stroke="#999999" stroke-opacity="0.6" stroke-width="4.58258" stroke-linecap="round"/>
<path d="M840.523 330.658L562.485 420.266" stroke="#999999" stroke-opacity="0.6" stroke-width="4.3589" stroke-linecap="round"/>
<path d="M840.523 330.657L303.331 143.729" stroke="#999999" stroke-opacity="0.6" stroke-linecap="round"/>
<path d="M840.523 330.658L693.151 351.699" stroke="#999999" stroke-opacity="0.6" stroke-width="1.41421" stroke-linecap="round"/>
<path d="M840.523 330.658L814.138 389.987" stroke="#999999" stroke-opacity="0.6" stroke-width="2.23607" stroke-linecap="round"/>
<path d="M840.523 330.658L875.156 498.388" stroke="#999999" stroke-opacity="0.6" stroke-width="2" stroke-linecap="round"/>
<path d="M831.649 239.783L719.015 257.542" stroke="#999999" stroke-opacity="0.6" stroke-linecap="round"/>
<path d="M831.649 239.783L840.523 330.658" stroke="#999999" stroke-opacity="0.6" stroke-linecap="round"/>
<path d="M986.947 380.75L840.523 330.658" stroke="#999999" stroke-opacity="0.6" stroke-linecap="round"/>
<path d="M986.947 380.748L814.138 389.986" stroke="#999999" stroke-opacity="0.6" stroke-linecap="round"/>
<path d="M986.947 380.748L875.156 498.386" stroke="#999999" stroke-opacity="0.6" stroke-linecap="round"/>
<path d="M904.086 443.013L840.523 330.658" stroke="#999999" stroke-opacity="0.6" stroke-width="2.64575" stroke-linecap="round"/>
<path d="M904.086 443.012L875.156 498.387" stroke="#999999" stroke-opacity="0.6" stroke-width="2.64575" stroke-linecap="round"/>
<path d="M904.086 443.012L607.702 371.266" stroke="#999999" stroke-opacity="0.6" stroke-width="2.44949" stroke-linecap="round"/>
<path d="M904.086 443.011L986.947 380.748" stroke="#999999" stroke-opacity="0.6" stroke-linecap="round"/>
<path d="M904.086 443.012L562.485 420.266" stroke="#999999" stroke-opacity="0.6" stroke-width="2" stroke-linecap="round"/>
<path d="M1030.55 422.49L904.086 443.011" stroke="#999999" stroke-opacity="0.6" stroke-width="3.87298" stroke-linecap="round"/>
<path d="M1030.55 422.492L840.523 330.658" stroke="#999999" stroke-opacity="0.6" stroke-width="2.23607" stroke-linecap="round"/>
<path d="M1030.55 422.49L875.156 498.386" stroke="#999999" stroke-opacity="0.6" stroke-width="2.44949" stroke-linecap="round"/>
<path d="M1030.55 422.49L986.947 380.748" stroke="#999999" stroke-opacity="0.6" stroke-width="1.41421" stroke-linecap="round"/>
<path d="M1055.8 527.074L875.156 498.387" stroke="#999999" stroke-opacity="0.6" stroke-linecap="round"/>
<path d="M1055.8 527.074L904.086 443.012" stroke="#999999" stroke-opacity="0.6" stroke-width="2" stroke-linecap="round"/>
<path d="M1055.8 527.074L1030.55 422.49" stroke="#999999" stroke-opacity="0.6" stroke-width="1.41421" stroke-linecap="round"/>
<path d="M995.511 485.957L875.156 498.387" stroke="#999999" stroke-opacity="0.6" stroke-width="1.41421" stroke-linecap="round"/>
<path d="M995.511 485.957L904.086 443.012" stroke="#999999" stroke-opacity="0.6" stroke-width="2.44949" stroke-linecap="round"/>
<path d="M995.511 485.957L1055.8 527.074" stroke="#999999" stroke-opacity="0.6" stroke-width="1.41421" stroke-linecap="round"/>
<path d="M995.511 485.956L1030.55 422.49" stroke="#999999" stroke-opacity="0.6" stroke-width="2.23607" stroke-linecap="round"/>
<path d="M995.511 485.956L986.947 380.748" stroke="#999999" stroke-opacity="0.6" stroke-linecap="round"/>
<path d="M995.511 485.958L840.523 330.658" stroke="#999999" stroke-opacity="0.6" stroke-linecap="round"/>
<path d="M985.277 440.226L840.523 330.658" stroke="#999999" stroke-opacity="0.6" stroke-width="3" stroke-linecap="round"/>
<path d="M985.277 440.225L904.086 443.011" stroke="#999999" stroke-opacity="0.6" stroke-width="4.12311" stroke-linecap="round"/>
<path d="M985.277 440.224L1030.55 422.49" stroke="#999999" stroke-opacity="0.6" stroke-width="3.60555" stroke-linecap="round"/>
<path d="M985.277 440.225L875.156 498.387" stroke="#999999" stroke-opacity="0.6" stroke-width="2.64575" stroke-linecap="round"/>
<path d="M985.277 440.224L986.947 380.748" stroke="#999999" stroke-opacity="0.6" stroke-width="1.41421" stroke-linecap="round"/>
<path d="M985.277 440.225L814.138 389.986" stroke="#999999" stroke-opacity="0.6" stroke-linecap="round"/>
<path d="M985.277 440.225L995.511 485.957" stroke="#999999" stroke-opacity="0.6" stroke-width="2.44949" stroke-linecap="round"/>
<path d="M985.277 440.225L1055.8 527.074" stroke="#999999" stroke-opacity="0.6" stroke-width="1.73205" stroke-linecap="round"/>
<path d="M1038.43 481.739L1030.55 422.49" stroke="#999999" stroke-opacity="0.6" stroke-width="2.23607" stroke-linecap="round"/>
<path d="M1038.43 481.74L875.156 498.388" stroke="#999999" stroke-opacity="0.6" stroke-width="2.23607" stroke-linecap="round"/>
<path d="M1038.43 481.739L985.277 440.225" stroke="#999999" stroke-opacity="0.6" stroke-width="2.44949" stroke-linecap="round"/>
<path d="M1038.43 481.739L986.947 380.748" stroke="#999999" stroke-opacity="0.6" stroke-width="1.41421" stroke-linecap="round"/>
<path d="M1038.43 481.74L904.086 443.012" stroke="#999999" stroke-opacity="0.6" stroke-width="2" stroke-linecap="round"/>
<path d="M1038.43 481.74L995.511 485.957" stroke="#999999" stroke-opacity="0.6" stroke-width="1.73205" stroke-linecap="round"/>
<path d="M1038.43 481.74L1055.8 527.075" stroke="#999999" stroke-opacity="0.6" stroke-width="1.41421" stroke-linecap="round"/>
<path d="M1038.43 481.741L840.523 330.658" stroke="#999999" stroke-opacity="0.6" stroke-linecap="round"/>
<path d="M933.277 485.008L840.523 330.658" stroke="#999999" stroke-opacity="0.6" stroke-width="2.23607" stroke-linecap="round"/>
<path d="M933.277 485.007L985.277 440.225" stroke="#999999" stroke-opacity="0.6" stroke-width="3.4641" stroke-linecap="round"/>
<path d="M933.277 485.008L875.156 498.387" stroke="#999999" stroke-opacity="0.6" stroke-width="2.23607" stroke-linecap="round"/>
<path d="M933.277 485.008L1038.43 481.74" stroke="#999999" stroke-opacity="0.6" stroke-width="2" stroke-linecap="round"/>
<path d="M933.277 485.007L904.086 443.012" stroke="#999999" stroke-opacity="0.6" stroke-width="3.16228" stroke-linecap="round"/>
<path d="M933.277 485.008L995.511 485.957" stroke="#999999" stroke-opacity="0.6" stroke-width="2.44949" stroke-linecap="round"/>
<path d="M933.277 485.008L1055.8 527.075" stroke="#999999" stroke-opacity="0.6" stroke-width="1.41421" stroke-linecap="round"/>
<path d="M933.277 485.007L1030.55 422.49" stroke="#999999" stroke-opacity="0.6" stroke-width="3" stroke-linecap="round"/>
<path d="M933.277 485.007L986.947 380.748" stroke="#999999" stroke-opacity="0.6" stroke-linecap="round"/>
<path d="M933.277 485.008L562.485 420.266" stroke="#999999" stroke-opacity="0.6" stroke-linecap="round"/>
<path d="M1062.34 454.145L1038.43 481.739" stroke="#999999" stroke-opacity="0.6" stroke-width="2.23607" stroke-linecap="round"/>
<path d="M1062.34 454.145L933.277 485.007" stroke="#999999" stroke-opacity="0.6" stroke-width="2.64575" stroke-linecap="round"/>
<path d="M1062.34 454.145L875.156 498.386" stroke="#999999" stroke-opacity="0.6" stroke-width="1.73205" stroke-linecap="round"/>
<path d="M1062.34 454.145L985.277 440.225" stroke="#999999" stroke-opacity="0.6" stroke-width="2.23607" stroke-linecap="round"/>
<path d="M1062.34 454.145L904.086 443.012" stroke="#999999" stroke-opacity="0.6" stroke-width="2.23607" stroke-linecap="round"/>
<path d="M1062.34 454.145L995.511 485.956" stroke="#999999" stroke-opacity="0.6" stroke-width="2.23607" stroke-linecap="round"/>
<path d="M1062.34 454.145L1055.8 527.073" stroke="#999999" stroke-opacity="0.6" stroke-width="1.41421" stroke-linecap="round"/>
<path d="M1062.34 454.145L1030.55 422.49" stroke="#999999" stroke-opacity="0.6" stroke-width="2.23607" stroke-linecap="round"/>
<path d="M1062.34 454.145L986.947 380.748" stroke="#999999" stroke-opacity="0.6" stroke-linecap="round"/>
<path d="M1062.34 454.146L840.523 330.658" stroke="#999999" stroke-opacity="0.6" stroke-width="1.41421" stroke-linecap="round"/>
<path d="M1032.8 562.265L933.277 485.008" stroke="#999999" stroke-opacity="0.6" stroke-width="1.73205" stroke-linecap="round"/>
<path d="M1032.8 562.265L904.086 443.012" stroke="#999999" stroke-opacity="0.6" stroke-width="1.73205" stroke-linecap="round"/>
<path d="M1032.8 562.264L1030.55 422.49" stroke="#999999" stroke-opacity="0.6" stroke-linecap="round"/>
<path d="M1032.8 562.265L985.277 440.225" stroke="#999999" stroke-opacity="0.6" stroke-width="1.41421" stroke-linecap="round"/>
<path d="M1032.8 562.264L1062.34 454.145" stroke="#999999" stroke-opacity="0.6" stroke-width="1.41421" stroke-linecap="round"/>
<path d="M1032.8 562.265L875.156 498.387" stroke="#999999" stroke-opacity="0.6" stroke-linecap="round"/>
<path d="M1032.8 562.265L1038.43 481.74" stroke="#999999" stroke-opacity="0.6" stroke-linecap="round"/>
<path d="M1032.8 562.265L995.511 485.957" stroke="#999999" stroke-opacity="0.6" stroke-linecap="round"/>
<path d="M1032.8 562.265L1055.8 527.074" stroke="#999999" stroke-opacity="0.6" stroke-linecap="round"/>
<path d="M1064.99 342.566L986.947 380.748" stroke="#999999" stroke-opacity="0.6" stroke-width="1.73205" stroke-linecap="round"/>
<path d="M724.381 436.49L693.151 351.697" stroke="#999999" stroke-opacity="0.6" stroke-width="2.23607" stroke-linecap="round"/>
<path d="M724.381 436.491L562.485 420.266" stroke="#999999" stroke-opacity="0.6" stroke-linecap="round"/>
<path d="M724.381 436.492L628.044 304.33" stroke="#999999" stroke-opacity="0.6" stroke-linecap="round"/>
<path d="M724.381 436.491L607.702 371.266" stroke="#999999" stroke-opacity="0.6" stroke-linecap="round"/>
<path d="M724.381 436.49L875.156 498.386" stroke="#999999" stroke-opacity="0.6" stroke-linecap="round"/>
<path d="M724.381 436.491L814.138 389.986" stroke="#999999" stroke-opacity="0.6" stroke-linecap="round"/>
<path d="M688.165 447.872L693.151 351.697" stroke="#999999" stroke-opacity="0.6" stroke-width="2.44949" stroke-linecap="round"/>
<path d="M688.165 447.872L724.381 436.49" stroke="#999999" stroke-opacity="0.6" stroke-width="2.44949" stroke-linecap="round"/>
<path d="M688.165 447.873L562.485 420.266" stroke="#999999" stroke-opacity="0.6" stroke-linecap="round"/>
<path d="M688.165 447.874L628.044 304.33" stroke="#999999" stroke-opacity="0.6" stroke-linecap="round"/>
<path d="M688.165 447.873L607.702 371.266" stroke="#999999" stroke-opacity="0.6" stroke-width="1.41421" stroke-linecap="round"/>
<path d="M688.165 447.873L875.156 498.387" stroke="#999999" stroke-opacity="0.6" stroke-linecap="round"/>
<path d="M688.165 447.873L814.138 389.986" stroke="#999999" stroke-opacity="0.6" stroke-linecap="round"/>
<path d="M729.007 396.299L693.151 351.697" stroke="#999999" stroke-opacity="0.6" stroke-width="2" stroke-linecap="round"/>
<path d="M729.007 396.301L688.165 447.874" stroke="#999999" stroke-opacity="0.6" stroke-width="2" stroke-linecap="round"/>
<path d="M729.007 396.301L724.381 436.492" stroke="#999999" stroke-opacity="0.6" stroke-width="2" stroke-linecap="round"/>
<path d="M729.007 396.301L562.485 420.266" stroke="#999999" stroke-opacity="0.6" stroke-linecap="round"/>
<path d="M729.007 396.301L628.044 304.33" stroke="#999999" stroke-opacity="0.6" stroke-linecap="round"/>
<path d="M729.007 396.3L607.702 371.266" stroke="#999999" stroke-opacity="0.6" stroke-linecap="round"/>
<path d="M729.007 396.3L814.138 389.986" stroke="#999999" stroke-opacity="0.6" stroke-linecap="round"/>
<path d="M729.007 396.301L904.086 443.013" stroke="#999999" stroke-opacity="0.6" stroke-linecap="round"/>
<path d="M713.674 488.634L607.702 371.266" stroke="#999999" stroke-opacity="0.6" stroke-linecap="round"/>
<path d="M713.674 488.634L688.165 447.873" stroke="#999999" stroke-opacity="0.6" stroke-width="1.41421" stroke-linecap="round"/>
<path d="M713.674 488.633L724.381 436.49" stroke="#999999" stroke-opacity="0.6" stroke-width="1.41421" stroke-linecap="round"/>
<path d="M713.674 488.635L729.007 396.301" stroke="#999999" stroke-opacity="0.6" stroke-width="1.41421" stroke-linecap="round"/>
<path d="M713.674 488.634L562.485 420.266" stroke="#999999" stroke-opacity="0.6" stroke-linecap="round"/>
<path d="M713.674 488.635L875.156 498.388" stroke="#999999" stroke-opacity="0.6" stroke-linecap="round"/>
<path d="M713.674 488.634L814.138 389.986" stroke="#999999" stroke-opacity="0.6" stroke-linecap="round"/>
<path d="M713.674 488.633L693.151 351.697" stroke="#999999" stroke-opacity="0.6" stroke-linecap="round"/>
<path d="M548.655 302.989L608.324 228.785" stroke="#999999" stroke-opacity="0.6" stroke-width="1.41421" stroke-linecap="round"/>
<path d="M548.655 302.988L607.702 371.265" stroke="#999999" stroke-opacity="0.6" stroke-linecap="round"/>
<path d="M548.655 302.988L562.485 420.264" stroke="#999999" stroke-opacity="0.6" stroke-linecap="round"/>
<path d="M921.446 589.288L875.156 498.387" stroke="#999999" stroke-opacity="0.6" stroke-width="1.41421" stroke-linecap="round"/>
<path d="M859.729 597.006L875.156 498.387" stroke="#999999" stroke-opacity="0.6" stroke-width="1.41421" stroke-linecap="round"/>
<path d="M859.729 597.006L921.446 589.287" stroke="#999999" stroke-opacity="0.6" stroke-width="1.73205" stroke-linecap="round"/>
<path d="M784.399 469.8L688.165 447.873" stroke="#999999" stroke-opacity="0.6" stroke-width="1.73205" stroke-linecap="round"/>
<path d="M784.399 469.799L724.381 436.49" stroke="#999999" stroke-opacity="0.6" stroke-width="1.73205" stroke-linecap="round"/>
<path d="M784.399 469.799L693.151 351.697" stroke="#999999" stroke-opacity="0.6" stroke-width="1.73205" stroke-linecap="round"/>
<path d="M784.399 469.799L875.156 498.386" stroke="#999999" stroke-opacity="0.6" stroke-linecap="round"/>
<path d="M784.399 469.8L814.138 389.986" stroke="#999999" stroke-opacity="0.6" stroke-linecap="round"/>
<path d="M784.399 469.801L729.007 396.301" stroke="#999999" stroke-opacity="0.6" stroke-linecap="round"/>
<path d="M784.399 469.799L713.674 488.633" stroke="#999999" stroke-opacity="0.6" stroke-linecap="round"/>
<path d="M989.653 539.025L933.277 485.008" stroke="#999999" stroke-opacity="0.6" stroke-linecap="round"/>
<path d="M989.653 539.023L1062.34 454.145" stroke="#999999" stroke-opacity="0.6" stroke-linecap="round"/>
<path d="M989.653 539.023L1032.8 562.264" stroke="#999999" stroke-opacity="0.6" stroke-linecap="round"/>
<path d="M989.653 539.025L1038.43 481.74" stroke="#999999" stroke-opacity="0.6" stroke-linecap="round"/>
<path d="M989.653 539.024L985.277 440.225" stroke="#999999" stroke-opacity="0.6" stroke-linecap="round"/>
<path d="M989.653 539.024L875.156 498.387" stroke="#999999" stroke-opacity="0.6" stroke-linecap="round"/>
<path d="M989.653 539.024L904.086 443.012" stroke="#999999" stroke-opacity="0.6" stroke-linecap="round"/>
<path d="M263.361 533.676C269.318 533.676 274.147 528.846 274.147 522.888C274.147 516.93 269.318 512.1 263.361 512.1C257.405 512.1 252.576 516.93 252.576 522.888C252.576 528.846 257.405 533.676 263.361 533.676Z" fill="#F28E2C" stroke="white" stroke-width="1.5"/>
<path d="M186.759 585.912C192.716 585.912 197.545 581.082 197.545 575.124C197.545 569.166 192.716 564.336 186.759 564.336C180.803 564.336 175.974 569.166 175.974 575.124C175.974 581.082 180.803 585.912 186.759 585.912Z" fill="#F28E2C" stroke="white" stroke-width="1.5"/>
<path d="M373.466 459.814C379.423 459.814 384.252 454.984 384.252 449.026C384.252 443.068 379.423 438.238 373.466 438.238C367.51 438.238 362.681 443.068 362.681 449.026C362.681 454.984 367.51 459.814 373.466 459.814Z" fill="#F28E2C" stroke="white" stroke-width="1.5"/>
<path d="M391.734 502.76C397.69 502.76 402.519 497.93 402.519 491.972C402.519 486.014 397.69 481.184 391.734 481.184C385.777 481.184 380.948 486.014 380.948 491.972C380.948 497.93 385.777 502.76 391.734 502.76Z" fill="#F28E2C" stroke="white" stroke-width="1.5"/>
<path d="M180.277 548.592C186.234 548.592 191.062 543.762 191.062 537.804C191.062 531.846 186.234 527.016 180.277 527.016C174.32 527.016 169.491 531.846 169.491 537.804C169.491 543.762 174.32 548.592 180.277 548.592Z" fill="#F28E2C" stroke="white" stroke-width="1.5"/>
<path d="M180.76 501.707C186.717 501.707 191.545 496.877 191.545 490.919C191.545 484.961 186.717 480.131 180.76 480.131C174.803 480.131 169.974 484.961 169.974 490.919C169.974 496.877 174.803 501.707 180.76 501.707Z" fill="#F28E2C" stroke="white" stroke-width="1.5"/>
<path d="M202.555 603.406C208.512 603.406 213.34 598.576 213.34 592.618C213.34 586.66 208.512 581.83 202.555 581.83C196.598 581.83 191.769 586.66 191.769 592.618C191.769 598.576 196.598 603.406 202.555 603.406Z" fill="#F28E2C" stroke="white" stroke-width="1.5"/>
<path d="M166.943 527.512C172.9 527.512 177.729 522.682 177.729 516.724C177.729 510.766 172.9 505.936 166.943 505.936C160.986 505.936 156.158 510.766 156.158 516.724C156.158 522.682 160.986 527.512 166.943 527.512Z" fill="#F28E2C" stroke="white" stroke-width="1.5"/>
<path d="M226.588 614.59C232.545 614.59 237.373 609.76 237.373 603.802C237.373 597.844 232.545 593.014 226.588 593.014C220.631 593.014 215.802 597.844 215.802 603.802C215.802 609.76 220.631 614.59 226.588 614.59Z" fill="#F28E2C" stroke="white" stroke-width="1.5"/>
<path d="M168.371 568.582C174.328 568.582 179.157 563.752 179.157 557.794C179.157 551.836 174.328 547.006 168.371 547.006C162.414 547.006 157.585 551.836 157.585 557.794C157.585 563.752 162.414 568.582 168.371 568.582Z" fill="#F28E2C" stroke="white" stroke-width="1.5"/>
<path d="M585.546 507.805C591.503 507.805 596.332 502.975 596.332 497.017C596.332 491.058 591.503 486.229 585.546 486.229C579.59 486.229 574.761 491.058 574.761 497.017C574.761 502.975 579.59 507.805 585.546 507.805Z" fill="#E15759" stroke="white" stroke-width="1.5"/>
<path d="M562.485 431.055C568.441 431.055 573.27 426.225 573.27 420.267C573.27 414.308 568.441 409.479 562.485 409.479C556.528 409.479 551.699 414.308 551.699 420.267C551.699 426.225 556.528 431.055 562.485 431.055Z" fill="#E15759" stroke="white" stroke-width="1.5"/>
<path d="M412.108 335.478C418.064 335.478 422.893 330.648 422.893 324.69C422.893 318.732 418.064 313.902 412.108 313.902C406.151 313.902 401.322 318.732 401.322 324.69C401.322 330.648 406.151 335.478 412.108 335.478Z" fill="#76B7B2" stroke="white" stroke-width="1.5"/>
<path d="M552.654 512.008C558.611 512.008 563.439 507.178 563.439 501.22C563.439 495.262 558.611 490.432 552.654 490.432C546.697 490.432 541.868 495.262 541.868 501.22C541.868 507.178 546.697 512.008 552.654 512.008Z" fill="#E15759" stroke="white" stroke-width="1.5"/>
<path d="M493.02 462.728C498.977 462.728 503.806 457.898 503.806 451.94C503.806 445.982 498.977 441.152 493.02 441.152C487.063 441.152 482.235 445.982 482.235 451.94C482.235 457.898 487.063 462.728 493.02 462.728Z" fill="#E15759" stroke="white" stroke-width="1.5"/>
<path d="M490.205 416.103C496.162 416.103 500.99 411.273 500.99 405.315C500.99 399.357 496.162 394.527 490.205 394.527C484.248 394.527 479.419 399.357 479.419 405.315C479.419 411.273 484.248 416.103 490.205 416.103Z" fill="#E15759" stroke="white" stroke-width="1.5"/>
<path d="M303.331 154.517C309.287 154.517 314.116 149.688 314.116 143.729C314.116 137.771 309.287 132.941 303.331 132.941C297.374 132.941 292.545 137.771 292.545 143.729C292.545 149.688 297.374 154.517 303.331 154.517Z" fill="#76B7B2" stroke="white" stroke-width="1.5"/>
<path d="M155.325 179.498C161.282 179.498 166.111 174.668 166.111 168.71C166.111 162.752 161.282 157.922 155.325 157.922C149.369 157.922 144.54 162.752 144.54 168.71C144.54 174.668 149.369 179.498 155.325 179.498Z" fill="#76B7B2" stroke="white" stroke-width="1.5"/>
<path d="M177.932 93.3944C183.889 93.3944 188.718 88.5645 188.718 82.6064C188.718 76.6483 183.889 71.8184 177.932 71.8184C171.976 71.8184 167.147 76.6483 167.147 82.6064C167.147 88.5645 171.976 93.3944 177.932 93.3944Z" fill="#76B7B2" stroke="white" stroke-width="1.5"/>
<path d="M112.193 181.158C118.15 181.158 122.978 176.328 122.978 170.37C122.978 164.412 118.15 159.582 112.193 159.582C106.236 159.582 101.407 164.412 101.407 170.37C101.407 176.328 106.236 181.158 112.193 181.158Z" fill="#76B7B2" stroke="white" stroke-width="1.5"/>
<path d="M131.011 95.1601C136.968 95.1601 141.797 90.3301 141.797 84.372C141.797 78.414 136.968 73.584 131.011 73.584C125.055 73.584 120.226 78.414 120.226 84.372C120.226 90.3301 125.055 95.1601 131.011 95.1601Z" fill="#76B7B2" stroke="white" stroke-width="1.5"/>
<path d="M173.434 138.209C179.391 138.209 184.22 133.379 184.22 127.421C184.22 121.463 179.391 116.633 173.434 116.633C167.477 116.633 162.648 121.463 162.648 127.421C162.648 133.379 167.477 138.209 173.434 138.209Z" fill="#76B7B2" stroke="white" stroke-width="1.5"/>
<path d="M105.51 134.299C111.467 134.299 116.296 129.469 116.296 123.511C116.296 117.553 111.467 112.723 105.51 112.723C99.5535 112.723 94.7246 117.553 94.7246 123.511C94.7246 129.469 99.5535 134.299 105.51 134.299Z" fill="#76B7B2" stroke="white" stroke-width="1.5"/>
<path d="M310.574 242.322C316.531 242.322 321.36 237.492 321.36 231.534C321.36 225.576 316.531 220.746 310.574 220.746C304.617 220.746 299.788 225.576 299.788 231.534C299.788 237.492 304.617 242.322 310.574 242.322Z" fill="#76B7B2" stroke="white" stroke-width="1.5"/>
<path d="M628.044 315.119C634 315.119 638.829 310.289 638.829 304.331C638.829 298.373 634 293.543 628.044 293.543C622.087 293.543 617.258 298.373 617.258 304.331C617.258 310.289 622.087 315.119 628.044 315.119Z" fill="#59A14F" stroke="white" stroke-width="1.5"/>
<path d="M693.151 362.486C699.108 362.486 703.937 357.656 703.937 351.698C703.937 345.74 699.108 340.91 693.151 340.91C687.194 340.91 682.365 345.74 682.365 351.698C682.365 357.656 687.194 362.486 693.151 362.486Z" fill="#59A14F" stroke="white" stroke-width="1.5"/>
<path d="M608.324 239.574C614.28 239.574 619.109 234.744 619.109 228.786C619.109 222.828 614.28 217.998 608.324 217.998C602.367 217.998 597.538 222.828 597.538 228.786C597.538 234.744 602.367 239.574 608.324 239.574Z" fill="#EDC949" stroke="white" stroke-width="1.5"/>
<path d="M607.702 382.055C613.659 382.055 618.488 377.225 618.488 371.267C618.488 365.308 613.659 360.479 607.702 360.479C601.746 360.479 596.917 365.308 596.917 371.267C596.917 377.225 601.746 382.055 607.702 382.055Z" fill="#59A14F" stroke="white" stroke-width="1.5"/>
<path d="M493.718 331.016C499.675 331.016 504.504 326.186 504.504 320.227C504.504 314.269 499.675 309.439 493.718 309.439C487.762 309.439 482.933 314.269 482.933 320.227C482.933 326.186 487.762 331.016 493.718 331.016Z" fill="#4E79A7" stroke="white" stroke-width="1.5"/>
<path d="M422.192 462.457C428.148 462.457 432.977 457.627 432.977 451.669C432.977 445.711 428.148 440.881 422.192 440.881C416.235 440.881 411.406 445.711 411.406 451.669C411.406 457.627 416.235 462.457 422.192 462.457Z" fill="#E15759" stroke="white" stroke-width="1.5"/>
<path d="M365.408 201.738C371.364 201.738 376.193 196.908 376.193 190.95C376.193 184.992 371.364 180.162 365.408 180.162C359.451 180.162 354.622 184.992 354.622 190.95C354.622 196.908 359.451 201.738 365.408 201.738Z" fill="#76B7B2" stroke="white" stroke-width="1.5"/>
<path d="M449.73 298.957C455.687 298.957 460.516 294.127 460.516 288.169C460.516 282.211 455.687 277.381 449.73 277.381C443.773 277.381 438.945 282.211 438.945 288.169C438.945 294.127 443.773 298.957 449.73 298.957Z" fill="#E15759" stroke="white" stroke-width="1.5"/>
<path d="M520.122 496.996C526.078 496.996 530.907 492.166 530.907 486.208C530.907 480.25 526.078 475.42 520.122 475.42C514.165 475.42 509.336 480.25 509.336 486.208C509.336 492.166 514.165 496.996 520.122 496.996Z" fill="#E15759" stroke="white" stroke-width="1.5"/>
<path d="M531.97 364.06C537.927 364.06 542.756 359.23 542.756 353.272C542.756 347.314 537.927 342.484 531.97 342.484C526.014 342.484 521.185 347.314 521.185 353.272C521.185 359.23 526.014 364.06 531.97 364.06Z" fill="#E15759" stroke="white" stroke-width="1.5"/>
<path d="M488.26 582.404C494.217 582.404 499.045 577.574 499.045 571.616C499.045 565.658 494.217 560.828 488.26 560.828C482.303 560.828 477.474 565.658 477.474 571.616C477.474 577.574 482.303 582.404 488.26 582.404Z" fill="#E15759" stroke="white" stroke-width="1.5"/>
<path d="M401.652 547.428C407.608 547.428 412.437 542.598 412.437 536.64C412.437 530.682 407.608 525.852 401.652 525.852C395.695 525.852 390.866 530.682 390.866 536.64C390.866 542.598 395.695 547.428 401.652 547.428Z" fill="#E15759" stroke="white" stroke-width="1.5"/>
<path d="M454.078 545.545C460.035 545.545 464.864 540.715 464.864 534.757C464.864 528.799 460.035 523.969 454.078 523.969C448.122 523.969 443.293 528.799 443.293 534.757C443.293 540.715 448.122 545.545 454.078 545.545Z" fill="#E15759" stroke="white" stroke-width="1.5"/>
<path d="M452.179 608.973C458.136 608.973 462.965 604.143 462.965 598.185C462.965 592.226 458.136 587.396 452.179 587.396C446.223 587.396 441.394 592.226 441.394 598.185C441.394 604.143 446.223 608.973 452.179 608.973Z" fill="#E15759" stroke="white" stroke-width="1.5"/>
<path d="M409.46 590.053C415.416 590.053 420.245 585.223 420.245 579.265C420.245 573.307 415.416 568.477 409.46 568.477C403.503 568.477 398.674 573.307 398.674 579.265C398.674 585.223 403.503 590.053 409.46 590.053Z" fill="#E15759" stroke="white" stroke-width="1.5"/>
<path d="M792.268 263.48C798.224 263.48 803.053 258.65 803.053 252.692C803.053 246.734 798.224 241.904 792.268 241.904C786.311 241.904 781.482 246.734 781.482 252.692C781.482 258.65 786.311 263.48 792.268 263.48Z" fill="#59A14F" stroke="white" stroke-width="1.5"/>
<path d="M684.46 284.775C690.417 284.775 695.246 279.945 695.246 273.987C695.246 268.029 690.417 263.199 684.46 263.199C678.504 263.199 673.675 268.029 673.675 273.987C673.675 279.945 678.504 284.775 684.46 284.775Z" fill="#AF7AA1" stroke="white" stroke-width="1.5"/>
<path d="M814.138 400.775C820.095 400.775 824.924 395.945 824.924 389.987C824.924 384.029 820.095 379.199 814.138 379.199C808.181 379.199 803.352 384.029 803.352 389.987C803.352 395.945 808.181 400.775 814.138 400.775Z" fill="#59A14F" stroke="white" stroke-width="1.5"/>
<path d="M746.014 321.564C751.97 321.564 756.799 316.734 756.799 310.776C756.799 304.818 751.97 299.988 746.014 299.988C740.057 299.988 735.228 304.818 735.228 310.776C735.228 316.734 740.057 321.564 746.014 321.564Z" fill="#59A14F" stroke="white" stroke-width="1.5"/>
<path d="M573.077 315.078C579.034 315.078 583.863 310.248 583.863 304.29C583.863 298.332 579.034 293.502 573.077 293.502C567.12 293.502 562.292 298.332 562.292 304.29C562.292 310.248 567.12 315.078 573.077 315.078Z" fill="#EDC949" stroke="white" stroke-width="1.5"/>
<path d="M464.79 395.385C470.747 395.385 475.576 390.555 475.576 384.597C475.576 378.639 470.747 373.809 464.79 373.809C458.833 373.809 454.004 378.639 454.004 384.597C454.004 390.555 458.833 395.385 464.79 395.385Z" fill="#4E79A7" stroke="white" stroke-width="1.5"/>
<path d="M426.903 263.545C432.859 263.545 437.688 258.715 437.688 252.757C437.688 246.799 432.859 241.969 426.903 241.969C420.946 241.969 416.117 246.799 416.117 252.757C416.117 258.715 420.946 263.545 426.903 263.545Z" fill="#4E79A7" stroke="white" stroke-width="1.5"/>
<path d="M908.565 735.107C914.521 735.107 919.35 730.277 919.35 724.319C919.35 718.361 914.521 713.531 908.565 713.531C902.608 713.531 897.779 718.361 897.779 724.319C897.779 730.277 902.608 735.107 908.565 735.107Z" fill="#FF9DA7" stroke="white" stroke-width="1.5"/>
<path d="M895.886 641.1C901.843 641.1 906.671 636.27 906.671 630.311C906.671 624.353 901.843 619.523 895.886 619.523C889.929 619.523 885.1 624.353 885.1 630.311C885.1 636.27 889.929 641.1 895.886 641.1Z" fill="#FF9DA7" stroke="white" stroke-width="1.5"/>
<path d="M875.156 509.176C881.113 509.176 885.941 504.346 885.941 498.388C885.941 492.43 881.113 487.6 875.156 487.6C869.199 487.6 864.37 492.43 864.37 498.388C864.37 504.346 869.199 509.176 875.156 509.176Z" fill="#9C755F" stroke="white" stroke-width="1.5"/>
<path d="M719.015 268.33C724.972 268.33 729.8 263.5 729.8 257.542C729.8 251.584 724.972 246.754 719.015 246.754C713.058 246.754 708.229 251.584 708.229 257.542C708.229 263.5 713.058 268.33 719.015 268.33Z" fill="#EDC949" stroke="white" stroke-width="1.5"/>
<path d="M650.513 210.348C656.47 210.348 661.299 205.518 661.299 199.56C661.299 193.601 656.47 188.771 650.513 188.771C644.557 188.771 639.728 193.601 639.728 199.56C639.728 205.518 644.557 210.348 650.513 210.348Z" fill="#EDC949" stroke="white" stroke-width="1.5"/>
<path d="M704.295 214.519C710.252 214.519 715.081 209.689 715.081 203.731C715.081 197.773 710.252 192.943 704.295 192.943C698.338 192.943 693.509 197.773 693.509 203.731C693.509 209.689 698.338 214.519 704.295 214.519Z" fill="#EDC949" stroke="white" stroke-width="1.5"/>
<path d="M786.51 152.475C792.467 152.475 797.296 147.645 797.296 141.686C797.296 135.728 792.467 130.898 786.51 130.898C780.553 130.898 775.725 135.728 775.725 141.686C775.725 147.645 780.553 152.475 786.51 152.475Z" fill="#EDC949" stroke="white" stroke-width="1.5"/>
<path d="M715.294 121.865C721.25 121.865 726.079 117.035 726.079 111.077C726.079 105.119 721.25 100.289 715.294 100.289C709.337 100.289 704.508 105.119 704.508 111.077C704.508 117.035 709.337 121.865 715.294 121.865Z" fill="#EDC949" stroke="white" stroke-width="1.5"/>
<path d="M767.026 210.396C772.983 210.396 777.811 205.566 777.811 199.608C777.811 193.65 772.983 188.82 767.026 188.82C761.069 188.82 756.24 193.65 756.24 199.608C756.24 205.566 761.069 210.396 767.026 210.396Z" fill="#EDC949" stroke="white" stroke-width="1.5"/>
<path d="M840.523 341.447C846.479 341.447 851.308 336.617 851.308 330.659C851.308 324.701 846.479 319.871 840.523 319.871C834.566 319.871 829.737 324.701 829.737 330.659C829.737 336.617 834.566 341.447 840.523 341.447Z" fill="#9C755F" stroke="white" stroke-width="1.5"/>
<path d="M831.649 250.572C837.606 250.572 842.435 245.742 842.435 239.784C842.435 233.826 837.606 228.996 831.649 228.996C825.692 228.996 820.863 233.826 820.863 239.784C820.863 245.742 825.692 250.572 831.649 250.572Z" fill="#EDC949" stroke="white" stroke-width="1.5"/>
<path d="M986.947 391.537C992.904 391.537 997.733 386.707 997.733 380.749C997.733 374.791 992.904 369.961 986.947 369.961C980.99 369.961 976.162 374.791 976.162 380.749C976.162 386.707 980.99 391.537 986.947 391.537Z" fill="#9C755F" stroke="white" stroke-width="1.5"/>
<path d="M904.086 453.801C910.042 453.801 914.871 448.971 914.871 443.013C914.871 437.055 910.042 432.225 904.086 432.225C898.129 432.225 893.3 437.055 893.3 443.013C893.3 448.971 898.129 453.801 904.086 453.801Z" fill="#9C755F" stroke="white" stroke-width="1.5"/>
<path d="M1030.55 433.279C1036.51 433.279 1041.34 428.449 1041.34 422.491C1041.34 416.533 1036.51 411.703 1030.55 411.703C1024.6 411.703 1019.77 416.533 1019.77 422.491C1019.77 428.449 1024.6 433.279 1030.55 433.279Z" fill="#9C755F" stroke="white" stroke-width="1.5"/>
<path d="M1055.8 537.863C1061.75 537.863 1066.58 533.033 1066.58 527.075C1066.58 521.117 1061.75 516.287 1055.8 516.287C1049.84 516.287 1045.01 521.117 1045.01 527.075C1045.01 533.033 1049.84 537.863 1055.8 537.863Z" fill="#9C755F" stroke="white" stroke-width="1.5"/>
<path d="M995.511 496.746C1001.47 496.746 1006.3 491.916 1006.3 485.958C1006.3 480 1001.47 475.17 995.511 475.17C989.554 475.17 984.725 480 984.725 485.958C984.725 491.916 989.554 496.746 995.511 496.746Z" fill="#9C755F" stroke="white" stroke-width="1.5"/>
<path d="M985.277 451.014C991.234 451.014 996.063 446.184 996.063 440.226C996.063 434.267 991.234 429.438 985.277 429.438C979.321 429.438 974.492 434.267 974.492 440.226C974.492 446.184 979.321 451.014 985.277 451.014Z" fill="#9C755F" stroke="white" stroke-width="1.5"/>
<path d="M1038.43 492.529C1044.39 492.529 1049.22 487.699 1049.22 481.741C1049.22 475.783 1044.39 470.953 1038.43 470.953C1032.48 470.953 1027.65 475.783 1027.65 481.741C1027.65 487.699 1032.48 492.529 1038.43 492.529Z" fill="#9C755F" stroke="white" stroke-width="1.5"/>
<path d="M933.277 495.797C939.233 495.797 944.062 490.967 944.062 485.009C944.062 479.051 939.233 474.221 933.277 474.221C927.32 474.221 922.491 479.051 922.491 485.009C922.491 490.967 927.32 495.797 933.277 495.797Z" fill="#9C755F" stroke="white" stroke-width="1.5"/>
<path d="M1062.34 464.934C1068.3 464.934 1073.13 460.104 1073.13 454.145C1073.13 448.187 1068.3 443.357 1062.34 443.357C1056.38 443.357 1051.56 448.187 1051.56 454.145C1051.56 460.104 1056.38 464.934 1062.34 464.934Z" fill="#9C755F" stroke="white" stroke-width="1.5"/>
<path d="M1032.8 573.055C1038.75 573.055 1043.58 568.225 1043.58 562.267C1043.58 556.308 1038.75 551.479 1032.8 551.479C1026.84 551.479 1022.01 556.308 1022.01 562.267C1022.01 568.225 1026.84 573.055 1032.8 573.055Z" fill="#9C755F" stroke="white" stroke-width="1.5"/>
<path d="M1064.99 353.355C1070.95 353.355 1075.78 348.525 1075.78 342.567C1075.78 336.609 1070.95 331.779 1064.99 331.779C1059.04 331.779 1054.21 336.609 1054.21 342.567C1054.21 348.525 1059.04 353.355 1064.99 353.355Z" fill="#BAB0AB" stroke="white" stroke-width="1.5"/>
<path d="M724.381 447.279C730.338 447.279 735.167 442.449 735.167 436.491C735.167 430.533 730.338 425.703 724.381 425.703C718.424 425.703 713.596 430.533 713.596 436.491C713.596 442.449 718.424 447.279 724.381 447.279Z" fill="#59A14F" stroke="white" stroke-width="1.5"/>
<path d="M688.165 458.662C694.122 458.662 698.951 453.832 698.951 447.874C698.951 441.916 694.122 437.086 688.165 437.086C682.208 437.086 677.38 441.916 677.38 447.874C677.38 453.832 682.208 458.662 688.165 458.662Z" fill="#59A14F" stroke="white" stroke-width="1.5"/>
<path d="M729.007 407.09C734.964 407.09 739.793 402.26 739.793 396.302C739.793 390.344 734.964 385.514 729.007 385.514C723.051 385.514 718.222 390.344 718.222 396.302C718.222 402.26 723.051 407.09 729.007 407.09Z" fill="#59A14F" stroke="white" stroke-width="1.5"/>
<path d="M713.674 499.424C719.631 499.424 724.46 494.594 724.46 488.636C724.46 482.678 719.631 477.848 713.674 477.848C707.717 477.848 702.888 482.678 702.888 488.636C702.888 494.594 707.717 499.424 713.674 499.424Z" fill="#59A14F" stroke="white" stroke-width="1.5"/>
<path d="M548.655 313.777C554.612 313.777 559.441 308.947 559.441 302.989C559.441 297.031 554.612 292.201 548.655 292.201C542.699 292.201 537.87 297.031 537.87 302.989C537.87 308.947 542.699 313.777 548.655 313.777Z" fill="#EDC949" stroke="white" stroke-width="1.5"/>
<path d="M921.446 600.076C927.403 600.076 932.232 595.246 932.232 589.288C932.232 583.33 927.403 578.5 921.446 578.5C915.489 578.5 910.66 583.33 910.66 589.288C910.66 595.246 915.489 600.076 921.446 600.076Z" fill="#4E79A7" stroke="white" stroke-width="1.5"/>
<path d="M859.729 607.795C865.685 607.795 870.514 602.965 870.514 597.007C870.514 591.049 865.685 586.219 859.729 586.219C853.772 586.219 848.943 591.049 848.943 597.007C848.943 602.965 853.772 607.795 859.729 607.795Z" fill="#4E79A7" stroke="white" stroke-width="1.5"/>
<path d="M784.399 480.588C790.356 480.588 795.185 475.758 795.185 469.8C795.185 463.842 790.356 459.012 784.399 459.012C778.442 459.012 773.613 463.842 773.613 469.8C773.613 475.758 778.442 480.588 784.399 480.588Z" fill="#59A14F" stroke="white" stroke-width="1.5"/>
<path d="M989.653 549.812C995.61 549.812 1000.44 544.982 1000.44 539.024C1000.44 533.066 995.61 528.236 989.653 528.236C983.696 528.236 978.867 533.066 978.867 539.024C978.867 544.982 983.696 549.812 989.653 549.812Z" fill="#9C755F" stroke="white" stroke-width="1.5"/>
</svg>
